<svg width="120" height="36" viewBox="0 0 120 36" fill="none" xmlns="http://www.w3.org/2000/svg">
<path d="M0 6.17143C0 2.76304 2.76304 0 6.17143 0H113.829C117.237 0 120 2.76304 120 6.17143V29.8286C120 33.237 117.237 36 113.829 36H6.17143C2.76304 36 0 33.237 0 29.8286V6.17143Z" fill="black"/>
<path d="M6.78616 2.22991H3.96562V10.0527H2.81451V2.22991H0V1.27768H6.78616V2.22991Z" transform="translate(41.6899 4.34735)" fill="white"/>
<path d="M10.8817 10.0527C10.8174 9.92411 10.7652 9.69509 10.725 9.36563C10.2067 9.90402 9.58797 10.1732 8.86878 10.1732C8.22592 10.1732 7.69757 9.99241 7.28373 9.6308C6.87391 9.26518 6.669 8.80313 6.669 8.24464C6.669 7.56563 6.92614 7.03929 7.44043 6.66563C7.95873 6.28795 8.68596 6.09911 9.62212 6.09911H10.7069V5.58683C10.7069 5.1971 10.5904 4.88772 10.3574 4.65871C10.1244 4.42567 9.78083 4.30915 9.32681 4.30915C8.92904 4.30915 8.59556 4.4096 8.32636 4.61049C8.05717 4.81138 7.92257 5.05446 7.92257 5.33973H6.80159C6.80159 5.01429 6.9161 4.70089 7.14512 4.39955C7.37815 4.0942 7.69154 3.85313 8.08529 3.67634C8.48306 3.49955 8.919 3.41116 9.39311 3.41116C10.1444 3.41116 10.7331 3.6 11.159 3.97768C11.5848 4.35134 11.8058 4.86763 11.8219 5.52656V8.5279C11.8219 9.12656 11.8982 9.60268 12.0509 9.95625V10.0527H10.8817ZM9.0315 9.2029C9.38105 9.2029 9.71253 9.1125 10.0259 8.9317C10.3393 8.75089 10.5663 8.51585 10.7069 8.22656V6.88862H9.83306C8.46699 6.88862 7.78395 7.28839 7.78395 8.08795C7.78395 8.4375 7.90047 8.71071 8.13351 8.90759C8.36654 9.10446 8.66587 9.2029 9.0315 9.2029ZM9.13998 2.47701L9.13395 1.55491C9.43529 1.53482 9.65628 1.49464 9.7969 1.43438C9.93753 1.37411 10.0078 1.26563 10.0078 1.10893C10.0078 0.952232 9.91543 0.835714 9.73061 0.759375C9.5498 0.679018 9.30873 0.638839 9.00739 0.638839L9.04958 0C9.64824 0 10.1023 0.104464 10.4116 0.313393C10.721 0.518304 10.8757 0.791518 10.8757 1.13304C10.8757 1.37813 10.7973 1.58103 10.6407 1.74174C10.484 1.90246 10.2509 2.00491 9.94154 2.04911L9.93552 2.47701H9.13998Z" transform="translate(41.6899 4.34735)" fill="white"/>
<path d="M14.4108 10.0527H13.2958V3.5317H14.4108V10.0527ZM13.2054 1.80201C13.2054 1.62121 13.2597 1.46853 13.3681 1.34397C13.4806 1.21942 13.6454 1.15714 13.8623 1.15714C14.0793 1.15714 14.244 1.21942 14.3565 1.34397C14.469 1.46853 14.5253 1.62121 14.5253 1.80201C14.5253 1.98281 14.469 2.13348 14.3565 2.25402C14.244 2.37455 14.0793 2.43482 13.8623 2.43482C13.6454 2.43482 13.4806 2.37455 13.3681 2.25402C13.2597 2.13348 13.2054 1.98281 13.2054 1.80201Z" transform="translate(41.6899 4.34735)" fill="white"/>
<path d="M19.5764 3.5317L19.6126 4.35134C20.1108 3.72455 20.7617 3.41116 21.5653 3.41116C22.9434 3.41116 23.6385 4.18862 23.6506 5.74353V10.0527H22.5356V5.7375C22.5316 5.26741 22.4231 4.91987 22.2101 4.69487C22.0012 4.46987 21.6738 4.35737 21.2278 4.35737C20.8662 4.35737 20.5488 4.4538 20.2756 4.64665C20.0023 4.83951 19.7894 5.09263 19.6367 5.40603V10.0527H18.5218V3.5317H19.5764Z" transform="translate(41.6899 4.34735)" fill="white"/>
<path d="M24.6966 6.73795C24.6966 5.72143 24.9316 4.91384 25.4017 4.31518C25.8718 3.7125 26.4946 3.41116 27.27 3.41116C28.0655 3.41116 28.6863 3.69241 29.1323 4.25491L29.1865 3.5317H30.205V9.89598C30.205 10.7397 29.9539 11.4047 29.4517 11.8908C28.9535 12.377 28.2825 12.6201 27.4387 12.6201C26.9687 12.6201 26.5086 12.5196 26.0586 12.3188C25.6086 12.1179 25.2651 11.8426 25.028 11.4931L25.6066 10.8241C26.0847 11.4147 26.6693 11.71 27.3604 11.71C27.9028 11.71 28.3247 11.5574 28.626 11.252C28.9314 10.9467 29.0841 10.5167 29.0841 9.96228V9.40179C28.6381 9.91607 28.0294 10.1732 27.2579 10.1732C26.4946 10.1732 25.8758 9.86585 25.4017 9.25112C24.9316 8.63638 24.6966 7.79866 24.6966 6.73795ZM25.8175 6.86451C25.8175 7.59978 25.9682 8.17835 26.2696 8.60022C26.5709 9.01808 26.9928 9.22701 27.5352 9.22701C28.2383 9.22701 28.7546 8.90759 29.0841 8.26875V5.29152C28.7425 4.66875 28.2303 4.35737 27.5472 4.35737C27.0048 4.35737 26.5809 4.5683 26.2756 4.99018C25.9702 5.41205 25.8175 6.03683 25.8175 6.86451Z" transform="translate(41.6899 4.34735)" fill="white"/>
<path d="M35.5481 10.0527C35.4839 9.92411 35.4316 9.69509 35.3915 9.36563C34.8731 9.90402 34.2544 10.1732 33.5352 10.1732C32.8923 10.1732 32.364 9.99241 31.9502 9.6308C31.5403 9.26518 31.3354 8.80313 31.3354 8.24464C31.3354 7.56563 31.5926 7.03929 32.1069 6.66563C32.6252 6.28795 33.3524 6.09911 34.2886 6.09911H35.3734V5.58683C35.3734 5.1971 35.2569 4.88772 35.0238 4.65871C34.7908 4.42567 34.4473 4.30915 33.9932 4.30915C33.5955 4.30915 33.262 4.4096 32.9928 4.61049C32.7236 4.81138 32.589 5.05446 32.589 5.33973H31.468C31.468 5.01429 31.5825 4.70089 31.8115 4.39955C32.0446 4.0942 32.358 3.85313 32.7517 3.67634C33.1495 3.49955 33.5854 3.41116 34.0595 3.41116C34.8109 3.41116 35.3995 3.6 35.8254 3.97768C36.2513 4.35134 36.4723 4.86763 36.4883 5.52656V8.5279C36.4883 9.12656 36.5647 9.60268 36.7173 9.95625V10.0527H35.5481ZM33.6979 9.2029C34.0475 9.2029 34.379 9.1125 34.6923 8.9317C35.0057 8.75089 35.2327 8.51585 35.3734 8.22656V6.88862H34.4995C33.1334 6.88862 32.4504 7.28839 32.4504 8.08795C32.4504 8.4375 32.5669 8.71071 32.7999 8.90759C33.033 9.10446 33.3323 9.2029 33.6979 9.2029Z" transform="translate(41.6899 4.34735)" fill="white"/>
<path d="M39.9029 8.41942L41.4216 3.5317H42.6149L39.9933 11.0592C39.5875 12.144 38.9426 12.6864 38.0587 12.6864L37.8477 12.6683L37.4319 12.59V11.6859L37.7332 11.71C38.1109 11.71 38.4042 11.6337 38.6131 11.481C38.8261 11.3283 39.0009 11.0491 39.1375 10.6433L39.3846 9.98036L37.0582 3.5317H38.2756L39.9029 8.41942Z" transform="translate(41.6899 4.34735)" fill="white"/>
<path d="M7.01129 22.4261H3.43707L2.63434 24.6526H1.47418L4.73199 16.1214H5.71637L8.98004 24.6526H7.82574L7.01129 22.4261ZM3.77692 21.5003H6.67731L5.22418 17.5101L3.77692 21.5003Z" transform="translate(41.6899 4.34735)" fill="white"/>
<path d="M15.314 21.553C15.314 22.5179 15.0933 23.2952 14.6519 23.8851C14.2105 24.4749 13.6129 24.7698 12.8589 24.7698C12.0894 24.7698 11.4839 24.5257 11.0425 24.0374V27.0901H9.95856V18.3128H10.9488L11.0015 19.0159C11.4429 18.4691 12.0562 18.1956 12.8414 18.1956C13.6031 18.1956 14.2047 18.4827 14.6461 19.0569C15.0914 19.6312 15.314 20.43 15.314 21.4534V21.553ZM14.23 21.43C14.23 20.7151 14.0777 20.1507 13.773 19.7366C13.4683 19.3226 13.0504 19.1155 12.5191 19.1155C11.8629 19.1155 11.3707 19.4066 11.0425 19.9886V23.0179C11.3668 23.596 11.8629 23.8851 12.5308 23.8851C13.0504 23.8851 13.4625 23.68 13.7672 23.2698C14.0757 22.8558 14.23 22.2425 14.23 21.43Z" transform="translate(41.6899 4.34735)" fill="white"/>
<path d="M22.0523 21.553C22.0523 22.5179 21.8316 23.2952 21.3902 23.8851C20.9488 24.4749 20.3511 24.7698 19.5972 24.7698C18.8277 24.7698 18.2222 24.5257 17.7808 24.0374V27.0901H16.6968V18.3128H17.6871L17.7398 19.0159C18.1812 18.4691 18.7945 18.1956 19.5797 18.1956C20.3414 18.1956 20.9429 18.4827 21.3843 19.0569C21.8297 19.6312 22.0523 20.43 22.0523 21.4534V21.553ZM20.9683 21.43C20.9683 20.7151 20.816 20.1507 20.5113 19.7366C20.2066 19.3226 19.7886 19.1155 19.2574 19.1155C18.6011 19.1155 18.1089 19.4066 17.7808 19.9886V23.0179C18.105 23.596 18.6011 23.8851 19.2691 23.8851C19.7886 23.8851 20.2007 23.68 20.5054 23.2698C20.814 22.8558 20.9683 22.2425 20.9683 21.43Z" transform="translate(41.6899 4.34735)" fill="white"/>
<path d="M30.1031 22.971C30.1031 22.678 29.9918 22.4515 29.7691 22.2913C29.5504 22.1273 29.1656 21.9866 28.6148 21.8694C28.0679 21.7523 27.6324 21.6116 27.3082 21.4476C26.9879 21.2835 26.7496 21.0882 26.5933 20.8616C26.441 20.6351 26.3648 20.3655 26.3648 20.053C26.3648 19.5335 26.5836 19.0941 27.0211 18.7347C27.4625 18.3753 28.025 18.1956 28.7086 18.1956C29.4273 18.1956 30.0093 18.3812 30.4547 18.7523C30.9039 19.1234 31.1285 19.598 31.1285 20.1761H30.0386C30.0386 19.8792 29.9117 19.6234 29.6578 19.4085C29.4078 19.1937 29.0914 19.0862 28.7086 19.0862C28.314 19.0862 28.0054 19.1722 27.7828 19.3441C27.5601 19.5159 27.4488 19.7405 27.4488 20.0179C27.4488 20.2796 27.5523 20.4769 27.7593 20.6097C27.9664 20.7425 28.3394 20.8694 28.8785 20.9905C29.4214 21.1116 29.8609 21.2562 30.1968 21.4241C30.5328 21.5921 30.7808 21.7952 30.941 22.0335C31.105 22.2679 31.1871 22.555 31.1871 22.8948C31.1871 23.4612 30.9605 23.9163 30.5074 24.2601C30.0543 24.5999 29.4664 24.7698 28.7437 24.7698C28.2359 24.7698 27.7867 24.68 27.3961 24.5003C27.0054 24.3206 26.6988 24.0706 26.4761 23.7503C26.2574 23.4261 26.148 23.0765 26.148 22.7015H27.232C27.2515 23.0648 27.3961 23.3538 27.6656 23.5687C27.939 23.7796 28.2984 23.8851 28.7437 23.8851C29.1539 23.8851 29.482 23.803 29.7281 23.639C29.9781 23.471 30.1031 23.2484 30.1031 22.971Z" transform="translate(41.6899 4.34735)" fill="white"/>
<path d="M34.0699 16.7776V18.3128H35.2535V19.1507H34.0699V23.0823C34.0699 23.3362 34.1226 23.5276 34.2281 23.6566C34.3336 23.7816 34.5132 23.8441 34.7672 23.8441C34.8922 23.8441 35.064 23.8206 35.2828 23.7737V24.6526C34.9976 24.7308 34.7203 24.7698 34.4507 24.7698C33.9664 24.7698 33.6011 24.6234 33.355 24.3304C33.1089 24.0374 32.9859 23.6214 32.9859 23.0823V19.1507H31.8316V18.3128H32.9859V16.7776H34.0699Z" transform="translate(41.6899 4.34735)" fill="white"/>
<path d="M36.1207 21.4241C36.1207 20.803 36.2418 20.2444 36.4839 19.7484C36.73 19.2523 37.0699 18.8694 37.5035 18.5999C37.941 18.3304 38.439 18.1956 38.9976 18.1956C39.8609 18.1956 40.5582 18.4944 41.0894 19.0921C41.6246 19.6898 41.8922 20.4847 41.8922 21.4769V21.553C41.8922 22.1702 41.773 22.7249 41.5347 23.2171C41.3004 23.7054 40.9625 24.0862 40.5211 24.3597C40.0836 24.6331 39.5797 24.7698 39.0093 24.7698C38.15 24.7698 37.4527 24.471 36.9175 23.8734C36.3863 23.2757 36.1207 22.4847 36.1207 21.5003V21.4241ZM37.2105 21.553C37.2105 22.2562 37.3726 22.8206 37.6968 23.2464C38.025 23.6722 38.4625 23.8851 39.0093 23.8851C39.5601 23.8851 39.9976 23.6702 40.3218 23.2405C40.6461 22.8069 40.8082 22.2015 40.8082 21.4241C40.8082 20.7288 40.6422 20.1663 40.3101 19.7366C39.982 19.303 39.5445 19.0862 38.9976 19.0862C38.4625 19.0862 38.0308 19.2991 37.7027 19.7249C37.3746 20.1507 37.2105 20.7601 37.2105 21.553Z" transform="translate(41.6899 4.34735)" fill="white"/>
<path d="M46.316 19.2855C46.1519 19.2581 45.9742 19.2444 45.7828 19.2444C45.0718 19.2444 44.5894 19.5472 44.3355 20.1526V24.6526H43.2515V18.3128H44.3062L44.3238 19.0452C44.6793 18.4788 45.1832 18.1956 45.8355 18.1956C46.0464 18.1956 46.2066 18.223 46.316 18.2776V19.2855Z" transform="translate(41.6899 4.34735)" fill="white"/>
<path d="M49.8316 24.7698C48.9722 24.7698 48.273 24.4886 47.7339 23.9261C47.1949 23.3597 46.9254 22.6038 46.9254 21.6585V21.4593C46.9254 20.8304 47.0445 20.2698 47.2828 19.7776C47.525 19.2816 47.8609 18.8948 48.2906 18.6175C48.7242 18.3362 49.1929 18.1956 49.6968 18.1956C50.5211 18.1956 51.1617 18.4671 51.6187 19.0101C52.0757 19.553 52.3043 20.3304 52.3043 21.3421V21.7933H48.0093C48.025 22.4183 48.2066 22.9241 48.5543 23.3109C48.9058 23.6937 49.3511 23.8851 49.8902 23.8851C50.273 23.8851 50.5972 23.8069 50.8629 23.6507C51.1285 23.4944 51.3609 23.2874 51.5601 23.0296L52.2222 23.5452C51.691 24.3616 50.8941 24.7698 49.8316 24.7698ZM49.6968 19.0862C49.2593 19.0862 48.8922 19.2464 48.5953 19.5667C48.2984 19.8831 48.1148 20.3284 48.0445 20.9026H51.2203V20.8206C51.189 20.2698 51.0406 19.8441 50.775 19.5433C50.5093 19.2386 50.15 19.0862 49.6968 19.0862Z" transform="translate(41.6899 4.34735)" fill="white"/>
<path d="M1.07182 3.35542C-1.07676 7.12783 0.289135 12.8527 2.66511 16.3239C3.8511 18.0593 5.05184 19.6171 6.69646 19.6171C6.72746 19.6171 6.75854 19.6165 6.79037 19.6152C7.56306 19.584 8.12143 19.3433 8.66131 19.1107C9.26742 18.8493 9.89429 18.5791 10.8775 18.5791C11.813 18.5791 12.4099 18.8406 12.9872 19.0933C13.5562 19.3424 14.1422 19.6 15.0081 19.5836C16.8607 19.5487 17.9981 17.8677 19.0016 16.3848C20.0487 14.8365 20.574 13.3332 20.7513 12.7587L20.7584 12.7358C20.7922 12.6337 20.7445 12.5223 20.6478 12.4773C20.6451 12.4761 20.6353 12.4719 20.6325 12.4708C20.3063 12.3358 17.4447 11.0513 17.4146 7.55047C17.3867 4.70622 19.5614 3.20004 19.9975 2.92705L20.0178 2.91423C20.0651 2.88346 20.098 2.83464 20.1092 2.77883C20.1203 2.7231 20.1087 2.6651 20.077 2.61822C18.5759 0.395663 16.2753 0.0607023 15.349 0.0204025C15.2146 0.00682874 15.0759 -2.57291e-08 14.9366 -2.57291e-08C13.8486 -2.57291e-08 12.8065 0.415728 11.9692 0.749761C11.3913 0.980347 10.892 1.17948 10.5477 1.17948C10.1609 1.17948 9.65881 0.977902 9.07744 0.744534C8.3 0.432337 7.41882 0.078576 6.48598 0.078576C6.46373 0.078576 6.44181 0.0788292 6.42023 0.0792508C4.25124 0.111541 2.20173 1.36707 1.07182 3.35542Z" transform="translate(9.77143 11.2401)" fill="white"/>
<path d="M5.24049 0.000161995C3.92702 0.0542885 2.35139 0.87234 1.40963 1.98842C0.609278 2.92653 -0.172578 4.49064 0.0334058 6.06722C0.0463214 6.16586 0.125649 6.24199 0.223725 6.24966C0.312385 6.25666 0.402877 6.2602 0.493037 6.26029C1.77735 6.26029 3.16283 5.54138 4.109 4.38382C5.10484 3.1615 5.60838 1.59285 5.45606 0.18775C5.44406 0.0776421 5.34832 -0.00413777 5.24049 0.000161995Z" transform="translate(19.8819 5.14288)" fill="white"/>
</svg>
