<svg width="19" height="6" viewBox="0 0 19 6" fill="none" xmlns="http://www.w3.org/2000/svg">
<path d="M2.7143 2.86615e-07C1.21523 2.86615e-07 0 1.17644 0 2.62762C0 4.07881 1.21523 5.25528 2.7143 5.25528C4.21337 5.25528 5.42859 4.07884 5.42859 2.62762C5.42859 1.1764 4.21333 2.86615e-07 2.7143 2.86615e-07ZM2.7143 3.94147C1.96478 3.94147 1.35717 3.35325 1.35717 2.62766C1.35717 1.90207 1.96478 1.31385 2.7143 1.31385C3.46381 1.31385 4.07143 1.90207 4.07143 2.62766C4.07143 3.35325 3.46381 3.94147 2.7143 3.94147Z" transform="translate(0 5.25537) scale(1 -1)" fill="white"/>
<path d="M2.7143 2.86615e-07C1.21523 2.86615e-07 1.45606e-08 1.17644 1.45606e-08 2.62766C1.45606e-08 4.07888 1.21523 5.25532 2.7143 5.25532C4.21337 5.25532 5.42859 4.07888 5.42859 2.62766C5.42859 1.17644 4.21337 2.86615e-07 2.7143 2.86615e-07ZM2.7143 3.94147C1.96478 3.94147 1.35717 3.35325 1.35717 2.62766C1.35717 1.90207 1.96478 1.31385 2.7143 1.31385C3.46381 1.31385 4.07143 1.90207 4.07143 2.62766C4.07147 3.35325 3.46385 3.94147 2.7143 3.94147Z" transform="translate(6.78564 5.25537) scale(1 -1)" fill="white"/>
<path d="M2.7143 2.86615e-07C1.21523 2.86615e-07 3.10625e-07 1.17644 3.10625e-07 2.62766C3.10625e-07 4.07888 1.21523 5.25528 2.7143 5.25528C4.21337 5.25528 5.42859 4.07884 5.42859 2.62762C5.42859 1.1764 4.21337 2.86615e-07 2.7143 2.86615e-07ZM2.7143 3.94147C1.96478 3.94147 1.35717 3.35325 1.35717 2.62766C1.35717 1.90207 1.96478 1.31385 2.7143 1.31385C3.46381 1.31385 4.07143 1.90207 4.07143 2.62766C4.07143 3.35325 3.46381 3.94147 2.7143 3.94147Z" transform="translate(13.5714 5.25537) scale(1 -1)" fill="white"/>
</svg>
