<svg width="18" height="16" viewBox="0 0 18 16" fill="none" xmlns="http://www.w3.org/2000/svg">
<path d="M17.8086 6.31952L9.2763 0.0900778C9.11177 -0.0300259 8.88824 -0.0300259 8.72378 0.0900778L0.191446 6.31952C-0.0169601 6.4717 -0.0622413 6.76351 0.0903717 6.97133C0.242985 7.17914 0.53566 7.22422 0.744031 7.07211L9 1.04435L17.256 7.07208C17.3392 7.1329 17.436 7.16217 17.5319 7.16217C17.6759 7.16217 17.818 7.09609 17.9096 6.97129C18.0622 6.76351 18.017 6.4717 17.8086 6.31952Z" fill="white"/>
<path d="M13.563 -2.56762e-08C13.3048 -2.56762e-08 13.0954 0.208797 13.0954 0.466357V7.88954H9.35397V3.8375C9.35397 2.55163 8.30484 1.50554 7.01538 1.50554C5.72592 1.50554 4.67679 2.5517 4.67679 3.8375V7.88958H0.935365V0.466392C0.935365 0.208832 0.72594 3.52791e-05 0.467683 3.52791e-05C0.209425 3.52791e-05 -1.18017e-08 0.208832 -1.18017e-08 0.466392V8.35597C-1.18017e-08 8.61353 0.209425 8.82233 0.467683 8.82233H5.14447C5.39043 8.82233 5.5917 8.63285 5.61033 8.39229C5.61145 8.38139 5.61216 8.36947 5.61216 8.35597V3.83753C5.61216 3.06598 6.24163 2.43829 7.01538 2.43829C7.78913 2.43829 8.41861 3.06601 8.41861 3.83753V8.35597C8.41861 8.3694 8.41931 8.38111 8.42043 8.39187C8.43886 8.6326 8.64019 8.82233 8.88629 8.82233H13.5631C13.8214 8.82233 14.0308 8.61353 14.0308 8.35597V0.466392C14.0307 0.208797 13.8213 -2.56762e-08 13.563 -2.56762e-08Z" transform="translate(1.98462 7.17773)" fill="white"/>
</svg>
