<svg width="36" height="36" viewBox="0 0 36 36" fill="none" xmlns="http://www.w3.org/2000/svg">
<path fill-rule="evenodd" clip-rule="evenodd" d="M23.4489 0C27.063 0 28.8696 0 30.8151 0.615C32.9391 1.3881 34.6119 3.0609 35.385 5.1849C36 7.1301 36 8.9373 36 12.5511V23.4489C36 27.063 36 28.8696 35.385 30.8151C34.6119 32.9391 32.9391 34.6119 30.8151 35.3847C28.8696 36 27.063 36 23.4489 36H12.5511C8.937 36 7.1301 36 5.1849 35.3847C3.0609 34.6119 1.3881 32.9391 0.615 30.8151C0 28.8696 0 27.063 0 23.4489V12.5511C0 8.9373 0 7.1301 0.615 5.1849C1.3881 3.0609 3.0609 1.3881 5.1849 0.615C7.1301 0 8.937 0 12.5511 0H23.4489Z" fill="url(#paint0_linear)"/>
<path fill-rule="evenodd" clip-rule="evenodd" d="M5.07108 5.7542C4.56455 6.5238 2.39054 8.68564 0.017431 9.30087C-0.123115 6.08408 0.59156 4.28042 1.96919 2.63874C2.79485 1.60165 4.97454 -0.824129 6.48676 0.283292C8.0171 1.40398 5.83361 4.6273 5.1849 5.58494L5.18483 5.58504L5.18474 5.58517C5.13836 5.65364 5.09984 5.71051 5.07108 5.7542ZM4.90466 5.62711C4.43005 6.40051 2.1449 8.52746 0.0179488 9.10758C-0.0172088 6.18957 0.791452 4.36267 2.1449 2.7443C2.95349 1.77748 5.09802 -0.578005 6.41638 0.459144C7.64349 1.49743 5.75142 4.34712 5.08257 5.3545C5.00409 5.47271 4.94245 5.56554 4.90466 5.62711Z" transform="translate(11.8477 16.2192)" fill="black"/>
<path d="M0.00110135 8.90687C2.12805 8.32675 4.41321 6.1998 4.88782 5.4264C4.9256 5.36483 4.98724 5.27199 5.06572 5.15379C5.73458 4.14641 7.62664 1.29672 6.39953 0.258434C5.08118 -0.778714 2.93665 1.57677 2.12805 2.54359C0.774604 4.16196 -0.0340563 5.98886 0.00110135 8.90687Z" transform="translate(11.8645 16.42)" fill="white"/>
<path fill-rule="evenodd" clip-rule="evenodd" d="M6.93504 3.58794C8.17383 4.95723 11.3601 10.4489 9.09586 11.8835C7.2769 12.8711 3.57193 9.82638 1.74382 6.75021C0.577933 4.78837 -0.808374 1.58151 0.583646 0.351763C2.12193 -1.00719 5.54098 1.89242 6.93504 3.58794ZM6.78873 3.7795C7.82578 4.93968 11.1129 10.3186 8.96842 11.6721C7.2457 12.6037 3.45456 9.42536 1.86686 6.46895C0.847331 4.57052 -0.558938 1.67013 0.759436 0.509965C2.21634 -0.772102 5.46844 2.17991 6.78873 3.7795Z" transform="translate(3.16406 13.4771)" fill="black"/>
<path fill-rule="evenodd" clip-rule="evenodd" d="M6.56474 3.58374C7.60178 4.74392 10.8889 10.1228 8.74443 11.4763C7.0217 12.408 3.23057 9.22961 1.64286 6.2732C0.623337 4.37477 -0.782933 1.47438 0.535442 0.31421C1.99234 -0.967858 5.24444 1.98416 6.56474 3.58374Z" transform="translate(3.388 13.6729)" fill="white"/>
<path fill-rule="evenodd" clip-rule="evenodd" d="M0.863469 0.959332C0.340454 0.980895 0.0394812 0.993303 0.00964956 0.646384C-0.209169 -0.251437 3.34113 -0.432507 5.82015 1.54152C7.71858 3.05324 8.59034 6.37551 7.64482 6.37551C7.30191 6.37551 7.18742 6.00299 7.01398 5.43867C6.77127 4.64898 6.41313 3.48371 5.15215 2.43802C3.25035 0.860925 1.74297 0.923071 0.863469 0.959332ZM0.892704 0.783471C1.7514 0.774345 3.33303 0.757536 5.31037 2.31496C6.60274 3.33289 7.03132 4.70126 7.2823 5.50257C7.40839 5.90513 7.48965 6.16458 7.61308 6.16458C8.19318 6.16458 7.43732 3.15871 5.64435 1.69973C3.41192 -0.116854 0.0042332 0.0122328 0.195129 0.627464C0.245674 0.790348 0.489491 0.787757 0.892704 0.783471Z" transform="translate(16.4865 10.4766)" fill="black"/>
<path fill-rule="evenodd" clip-rule="evenodd" d="M0.705261 0.567562C1.56396 0.558436 3.14558 0.541627 5.12292 2.09905C6.41529 3.11698 6.84388 4.48535 7.09486 5.28666C7.22094 5.68922 7.3022 5.94867 7.42564 5.94867C8.00573 5.94867 7.24987 2.9428 5.4569 1.48382C3.22447 -0.332763 -0.18321 -0.203676 0.00768645 0.411555C0.0582309 0.574439 0.302048 0.571848 0.705261 0.567562Z" transform="translate(16.674 10.6924)" fill="white"/>
<path fill-rule="evenodd" clip-rule="evenodd" d="M3.17706 2.71999C2.95701 2.24482 2.81616 1.80412 2.1483 1.34832C1.48045 0.892529 1.03623 0.910752 0.654588 0.89253C0.249984 0.92646 0.0725372 0.864738 0.00596002 0.531476C-0.118809 -0.093072 1.74404 -0.304021 2.90416 0.662775C4.158 1.70767 4.3281 3.29431 3.63762 3.29431C3.33168 3.29431 3.23826 3.05341 3.17706 2.71999ZM3.38129 2.69498C3.27342 2.27998 2.96126 1.71125 2.32411 1.22528C1.68999 0.741634 1.08187 0.713226 0.679029 0.694407C0.400691 0.681405 0.220352 0.67298 0.197147 0.522137C0.126842 0.0651171 1.86706 0.10028 2.72839 0.803387C3.74051 1.62958 4.0292 3.0534 3.64246 3.08854C3.51407 3.12422 3.44705 2.94794 3.38129 2.69498Z" transform="translate(16.9063 14.1854)" fill="black"/>
<path d="M3.44738 2.86897C3.83413 2.83383 3.54544 1.41001 2.53332 0.583819C1.67198 -0.119287 -0.068238 -0.15445 0.00206769 0.302569C0.0252727 0.453412 0.205612 0.461837 0.48395 0.474839C0.886792 0.493658 1.49491 0.522066 2.12903 1.00571C2.76619 1.49168 3.07834 2.06041 3.18622 2.47541C3.25197 2.72838 3.319 2.90465 3.44738 2.86897Z" transform="translate(17.1014 14.405)" fill="white"/>
<path fill-rule="evenodd" clip-rule="evenodd" d="M5.07339 4.11346C4.8877 3.48335 4.61345 2.55274 3.39618 1.72711C2.27994 0.97001 1.39417 0.979355 0.807946 0.98554C0.332527 0.990556 0.0541135 0.993493 0.00954774 0.583866C-0.189752 -0.329537 2.78095 -0.171336 4.25751 1.05914C6.2192 2.69391 6.47667 4.85602 5.63955 4.85602C5.29222 4.85602 5.20508 4.5603 5.07339 4.11346ZM5.255 4.04496C5.07146 3.43423 4.77759 2.45634 3.53677 1.5865C2.40523 0.793267 1.40728 0.79542 0.807046 0.796715C0.409582 0.797572 0.186505 0.798054 0.214503 0.566968C0.0738775 0.0220337 2.55243 0.0370819 3.97622 1.09431C5.75165 2.41264 6.20869 4.64509 5.64615 4.64509C5.43535 4.64509 5.36499 4.41096 5.255 4.04496Z" transform="translate(16.6956 12.3124)" fill="black"/>
<path fill-rule="evenodd" clip-rule="evenodd" d="M5.04623 3.83264C4.8627 3.22192 4.56882 2.24403 3.328 1.37419C2.19646 0.580957 1.19852 0.58311 0.598278 0.584405C0.200814 0.585262 -0.0222625 0.585744 0.0057359 0.354658C-0.13489 -0.190276 2.34366 -0.175228 3.76745 0.882002C5.54288 2.20033 5.99992 4.43278 5.43738 4.43278C5.22658 4.43278 5.15622 4.19864 5.04623 3.83264Z" transform="translate(16.9043 12.5248)" fill="white"/>
<path fill-rule="evenodd" clip-rule="evenodd" d="M2.63672 4.30664C3.54928 4.30664 4.28906 3.56686 4.28906 2.6543C4.28906 1.74173 3.54928 1.00195 2.63672 1.00195C1.72415 1.00195 0.984375 1.74173 0.984375 2.6543C0.984375 3.56686 1.72415 4.30664 2.63672 4.30664ZM2.63672 4.0957C3.43279 4.0957 4.07813 3.45036 4.07813 2.6543C4.07813 1.85823 3.43279 1.21289 2.63672 1.21289C1.84065 1.21289 1.19531 1.85823 1.19531 2.6543C1.19531 3.45036 1.84065 4.0957 2.63672 4.0957Z" transform="translate(18.5977 20.2095)" fill="black"/>
<path d="M4.3418 0.0703125C4.14988 0.16627 4.13086 0.228516 4.00781 0.401654C4.06804 0.438389 4.12667 0.477471 4.18359 0.518773C4.25391 0.421875 4.39453 0.265916 4.42969 0.263672L5.25586 0.210938C5.29872 0.208202 5.29899 0.238072 5.29102 0.298828C5.21803 0.854868 5.15039 1.05469 5.10413 1.72266C5.21356 2.01233 5.27344 2.32632 5.27344 2.6543C5.32617 1.72266 5.3086 1.23047 5.51953 0.298828C5.53905 0.212641 5.50867 0 5.27344 0C5.00977 0 4.42969 0.0263672 4.3418 0.0703125Z" transform="translate(18.5977 20.2095)" fill="black"/>
<path d="M5.27344 2.6543C5.27344 2.32632 5.21356 2.01233 5.10413 1.72266L5.0625 2.6543L5.11524 3.55598C5.2176 3.27466 5.27344 2.971 5.27344 2.6543Z" transform="translate(18.5977 20.2095)" fill="black"/>
<path d="M5.44922 4.51758C5.36133 3.97266 5.3086 3.62109 5.27344 2.6543C5.27344 2.971 5.2176 3.27466 5.11524 3.55598C5.15039 4.00781 5.16797 4.16602 5.23828 4.51758C5.3543 5.09766 5.8711 5.02734 5.76563 5.09766H4.67578C4.53516 5.09766 4.51758 4.71094 4.3907 4.62305C4.3355 4.67226 4.27822 4.71918 4.21901 4.76367C4.32422 4.76367 4.32422 5.30859 4.67578 5.30859H5.81836C5.99414 5.29102 6.08203 4.93945 5.83594 4.86914C5.69531 4.83398 5.48608 4.74609 5.44922 4.51758Z" transform="translate(18.5977 20.2095)" fill="black"/>
<path d="M2.63672 5.08008C1.297 5.08008 0.210938 3.99402 0.210938 2.6543C0.210938 1.31457 1.297 0.228516 2.63672 0.228516C3.05349 0.228516 3.44572 0.333622 3.78834 0.518773C3.97266 0.650391 4.12635 0.597656 4.18359 0.518773C4.12667 0.477471 4.06804 0.438389 4.00781 0.401654C3.60831 0.157973 3.13891 0.0175781 2.63672 0.0175781C1.1805 0.0175781 0 1.19808 0 2.6543C0 4.11052 1.1805 5.29102 2.63672 5.29102C3.23042 5.29102 3.77828 5.0948 4.21901 4.76367C4.27822 4.71918 4.3355 4.67226 4.3907 4.62305C4.3418 4.58917 4.23633 4.51758 4.05422 4.62305C3.65549 4.91064 3.16589 5.08008 2.63672 5.08008Z" transform="translate(18.5977 20.2095)" fill="black"/>
<path fill-rule="evenodd" clip-rule="evenodd" d="M0.210938 2.6543C0.210938 3.99402 1.297 5.08008 2.63672 5.08008C3.16589 5.08008 3.65549 4.91064 4.05422 4.62305C4.23633 4.51758 4.3418 4.58917 4.3907 4.62305C4.51758 4.71094 4.53516 5.09766 4.67578 5.09766H5.76563C5.8711 5.02734 5.3543 5.09766 5.23828 4.51758C5.16797 4.16602 5.15039 4.00781 5.11524 3.55598L5.0625 2.6543L5.10413 1.72266C5.15039 1.05469 5.21803 0.854868 5.29102 0.298828C5.29899 0.238072 5.29872 0.208202 5.25586 0.210938L4.42969 0.263672C4.39453 0.265916 4.25391 0.421875 4.18359 0.518773C4.12635 0.597656 3.97266 0.650391 3.78834 0.518773C3.44572 0.333622 3.05349 0.228516 2.63672 0.228516C1.297 0.228516 0.210938 1.31457 0.210938 2.6543ZM2.63672 4.30664C3.54928 4.30664 4.28906 3.56686 4.28906 2.6543C4.28906 1.74173 3.54928 1.00195 2.63672 1.00195C1.72415 1.00195 0.984375 1.74173 0.984375 2.6543C0.984375 3.56686 1.72415 4.30664 2.63672 4.30664Z" transform="translate(18.5977 20.2095)" fill="white"/>
<path d="M1.22303 2.6543C1.22303 2.32632 1.16315 2.01233 1.05372 1.72266L1.01209 2.6543L1.06483 3.55598C1.16719 3.27466 1.22303 2.971 1.22303 2.6543Z" transform="translate(30.8745 20.2095)" fill="black"/>
<path d="M1.39881 4.51758C1.31092 3.97266 1.25819 3.62109 1.22303 2.6543C1.22303 2.971 1.16719 3.27466 1.06483 3.55598C1.09998 4.00781 1.11756 4.16602 1.18787 4.51758C1.30389 5.09766 1.82068 5.02734 1.71522 5.09766H0.625377C0.379301 5.09766 0.40043 4.76367 0.379301 4.62305C0.324104 4.67226 0.245157 4.71918 0.185943 4.76367C0.185943 4.99219 0.238676 5.27344 0.625377 5.30859H1.76795C1.94373 5.29102 2.03162 4.93945 1.78553 4.86914C1.6449 4.83398 1.43567 4.74609 1.39881 4.51758Z" transform="translate(30.8745 20.2095)" fill="black"/>
<path d="M1.22303 0C0.95936 0 0.379285 0.0263672 0.291394 0.0703125C0.0454557 0.580078 -0.165476 2.75977 0.185943 4.76367C0.245157 4.71918 0.324104 4.67226 0.379301 4.62305C-0.042572 2.44336 0.396879 0.23076 0.432035 0.228516C0.593355 0.218219 0.706049 0.218973 0.818744 0.219727L1.20545 0.210938C1.24832 0.208202 1.24858 0.238072 1.24061 0.298828C1.16762 0.854868 1.09998 1.05469 1.05372 1.72266C1.16315 2.01233 1.22303 2.32632 1.22303 2.6543C1.27576 1.72266 1.25819 1.23047 1.46912 0.298828C1.48864 0.212641 1.45826 0 1.22303 0Z" transform="translate(30.8745 20.2095)" fill="black"/>
<path d="M0.234608 0.0177504C0.199451 0.0199945 -0.240004 2.2326 0.181873 4.41228C0.203002 4.55291 0.181873 4.88689 0.427951 4.88689H1.5178C1.62327 4.81658 1.10647 4.88689 0.990455 4.30682C0.920142 3.95525 0.902563 3.79705 0.867407 3.34522L0.814672 2.44353L0.856298 1.51189C0.902563 0.843923 0.970204 0.644103 1.04319 0.088063C1.05116 0.027307 1.0509 -0.0025636 1.00803 0.000172297C0.846712 0.0104693 0.734016 0.00971535 0.62132 0.00896136L0.234608 0.0177504Z" transform="translate(31.0719 20.4202)" fill="white"/>
<path fill-rule="evenodd" clip-rule="evenodd" d="M0.808594 1.61719C1.25517 1.61719 1.61719 1.25517 1.61719 0.808594C1.61719 0.36202 1.25517 0 0.808594 0C0.36202 0 0 0.36202 0 0.808594C0 1.25517 0.36202 1.61719 0.808594 1.61719ZM0.808594 1.40625C1.13867 1.40625 1.40625 1.13867 1.40625 0.808594C1.40625 0.478517 1.13867 0.210938 0.808594 0.210938C0.478517 0.210938 0.210938 0.478517 0.210938 0.808594C0.210938 1.13867 0.478517 1.40625 0.808594 1.40625Z" transform="translate(31.2539 18.2231)" fill="black"/>
<path fill-rule="evenodd" clip-rule="evenodd" d="M0.808594 1.40625C1.13867 1.40625 1.40625 1.13867 1.40625 0.808594C1.40625 0.478517 1.13867 0.210938 0.808594 0.210938C0.478517 0.210938 0.210938 0.478517 0.210938 0.808594C0.210938 1.13867 0.478517 1.40625 0.808594 1.40625Z" transform="translate(31.2539 18.2231)" fill="white"/>
<path fill-rule="evenodd" clip-rule="evenodd" d="M4.28906 4.60497C4.28906 5.51753 3.54928 6.25731 2.63672 6.25731C1.72415 6.25731 0.984375 5.51753 0.984375 4.60497C0.984375 3.6924 1.72415 2.95263 2.63672 2.95263C3.54928 2.95263 4.28906 3.6924 4.28906 4.60497ZM2.63672 6.04638C3.43279 6.04638 4.07813 5.40103 4.07813 4.60497C4.07813 3.8089 3.43279 3.16356 2.63672 3.16356C1.84065 3.16356 1.19531 3.8089 1.19531 4.60497C1.19531 5.40103 1.84065 6.04638 2.63672 6.04638Z" transform="translate(24.6445 18.2412)" fill="black"/>
<path d="M2.63672 7.03075C1.297 7.03075 0.210938 5.94469 0.210938 4.60497C0.210938 3.26525 1.297 2.17919 2.63672 2.17919C3.05349 2.17919 3.44572 2.28429 3.78834 2.46944C3.97266 2.60106 4.07813 2.68897 4.25391 2.51317C4.35938 2.40769 4.41211 0.983884 4.54712 0.351072C4.58666 0.27328 4.63463 0.228025 4.69336 0.228025C4.99724 0.208628 5.07175 0.225769 5.34375 0.227828C5.38508 0.228141 5.39278 0.245605 5.38508 0.290791C5.31867 0.680471 5.13281 2.08451 5.13281 2.2495C5.09766 2.81201 5.10877 3.02295 5.0625 3.69092L5.08008 4.60497L5.13281 5.50146C5.16797 5.9533 5.16797 6.1167 5.23828 6.46826C5.36836 7.11866 5.87109 6.97802 5.76563 7.04833H4.67578C4.53516 7.04833 4.51758 6.66161 4.3907 6.57372C4.3355 6.62293 4.27822 6.66986 4.21901 6.71434C4.32422 6.71434 4.32422 7.25927 4.67578 7.25927H5.81836C5.99414 7.24169 6.08203 6.90771 5.83594 6.8374C5.69531 6.80225 5.48438 6.74951 5.44922 6.50342C5.34375 5.62451 5.34187 5.5542 5.29102 4.60497C5.23828 3.6206 5.36133 2.51317 5.36133 2.24951C5.36133 1.45568 5.58984 0.632323 5.58984 0.245605C5.58984 0.0874014 5.57227 0.0298627 5.43164 0.0170728C5.16905 -0.00680979 4.69336 -0.00454052 4.62305 0.0170695C4.39453 0.0873769 4.33761 0.263343 4.3332 0.315893C4.30664 0.632322 4.21875 1.00146 4.0957 2.35498C4.09089 2.40791 4.10843 2.42226 3.99024 2.35498C3.59729 2.1313 3.10705 1.96825 2.63672 1.96825C1.1805 1.96825 0 3.14875 0 4.60497C0 6.06119 1.1805 7.24169 2.63672 7.24169C3.23042 7.24169 3.77828 7.04547 4.21901 6.71434C4.27822 6.66986 4.3355 6.62293 4.3907 6.57372C4.3418 6.53984 4.23633 6.46825 4.05422 6.57372C3.65549 6.86131 3.16589 7.03075 2.63672 7.03075Z" transform="translate(24.6445 18.2412)" fill="black"/>
<path fill-rule="evenodd" clip-rule="evenodd" d="M2.63672 7.03075C1.297 7.03075 0.210938 5.94469 0.210938 4.60497C0.210938 3.26525 1.297 2.17919 2.63672 2.17919C3.05349 2.17919 3.44572 2.28429 3.78834 2.46944C3.97266 2.60106 4.07813 2.68897 4.25391 2.51317C4.35938 2.40769 4.41211 0.983884 4.54712 0.351072C4.58666 0.27328 4.63463 0.228025 4.69336 0.228025C4.99724 0.208628 5.07175 0.225769 5.34375 0.227828C5.38508 0.228141 5.39278 0.245605 5.38508 0.290791C5.31867 0.680471 5.13281 2.08451 5.13281 2.2495C5.09766 2.81201 5.10877 3.02295 5.0625 3.69092L5.08008 4.60497L5.13281 5.50146C5.16797 5.9533 5.16797 6.1167 5.23828 6.46826C5.36836 7.11866 5.87109 6.97802 5.76563 7.04833H4.67578C4.53516 7.04833 4.51758 6.66161 4.3907 6.57372C4.3418 6.53984 4.23633 6.46825 4.05422 6.57372C3.65549 6.86131 3.16589 7.03075 2.63672 7.03075ZM2.63672 6.25731C3.54928 6.25731 4.28906 5.51753 4.28906 4.60497C4.28906 3.6924 3.54928 2.95263 2.63672 2.95263C1.72415 2.95263 0.984375 3.6924 0.984375 4.60497C0.984375 5.51753 1.72415 6.25731 2.63672 6.25731Z" transform="translate(24.6445 18.2412)" fill="white"/>
<defs>
<linearGradient id="paint0_linear" x2="1" gradientUnits="userSpaceOnUse" gradientTransform="translate(18) scale(36) rotate(90)">
<stop stop-color="#2359FF"/>
<stop stop-color="#2359FF"/>
<stop offset="0.154696" stop-color="#1E50E8"/>
<stop offset="0.359116" stop-color="#1E61CF"/>
<stop offset="0.513812" stop-color="#1D6EBC"/>
<stop offset="0.889503" stop-color="#1BC738"/>
</linearGradient>
</defs>
</svg>
