<svg width="120" height="36" viewBox="0 0 120 36" fill="none" xmlns="http://www.w3.org/2000/svg">
<path d="M0 6.17143C0 2.76304 2.76304 0 6.17143 0H113.829C117.237 0 120 2.76304 120 6.17143V29.8286C120 33.237 117.237 36 113.829 36H6.17143C2.76304 36 0 33.237 0 29.8286V6.17143Z" fill="black"/>
<path d="M7.20297 23.8158C6.90565 24.2417 6.4898 24.5612 5.95543 24.7741C5.42507 24.983 4.80632 25.0875 4.09918 25.0875C3.384 25.0875 2.74918 24.9208 2.19472 24.5873C1.64025 24.2498 1.21034 23.7717 0.904983 23.1529C0.603644 22.5342 0.448956 21.817 0.440921 21.0013V20.2359C0.440921 18.9141 0.748287 17.8895 1.36302 17.1623C1.98177 16.435 2.84963 16.0714 3.96659 16.0714C4.88266 16.0714 5.61994 16.3065 6.17842 16.7766C6.7369 17.2426 7.07842 17.9056 7.20297 18.7654H6.04583C5.82887 17.6042 5.1378 17.0237 3.97262 17.0237C3.19717 17.0237 2.60855 17.2969 2.20677 17.8433C1.809 18.3857 1.60811 19.1732 1.60409 20.2058V20.923C1.60409 21.9074 1.82909 22.6908 2.27909 23.2734C2.72909 23.852 3.3378 24.1413 4.10521 24.1413C4.53913 24.1413 4.91882 24.0931 5.24427 23.9967C5.56972 23.9002 5.83891 23.7375 6.05186 23.5085V21.5377H4.02083V20.5975H7.20297V23.8158Z" transform="translate(41.6898 4.34735)" fill="white"/>
<path d="M8.2972 21.6462C8.2972 21.0074 8.42175 20.4328 8.67086 19.9225C8.92398 19.4123 9.27354 19.0185 9.71952 18.7413C10.1695 18.4641 10.6818 18.3254 11.2563 18.3254C12.1443 18.3254 12.8615 18.6328 13.4079 19.2475C13.9584 19.8623 14.2336 20.6799 14.2336 21.7004V21.7788C14.2336 22.4136 14.111 22.9842 13.8659 23.4904C13.6249 23.9926 13.2773 24.3844 12.8233 24.6656C12.3733 24.9469 11.855 25.0875 11.2684 25.0875C10.3845 25.0875 9.66729 24.7801 9.11684 24.1654C8.57041 23.5507 8.2972 22.7371 8.2972 21.7246V21.6462ZM9.41818 21.7788C9.41818 22.502 9.58492 23.0826 9.9184 23.5205C10.2559 23.9585 10.7059 24.1775 11.2684 24.1775C11.8349 24.1775 12.2849 23.9565 12.6184 23.5145C12.9519 23.0685 13.1186 22.4458 13.1186 21.6462C13.1186 20.931 12.9479 20.3525 12.6063 19.9105C12.2688 19.4645 11.8188 19.2415 11.2563 19.2415C10.7059 19.2415 10.2619 19.4605 9.92443 19.8984C9.58693 20.3364 9.41818 20.9632 9.41818 21.7788Z" transform="translate(41.6898 4.34735)" fill="white"/>
<path d="M14.9662 21.6462C14.9662 21.0074 15.0907 20.4328 15.3399 19.9225C15.593 19.4123 15.9425 19.0185 16.3885 18.7413C16.8385 18.4641 17.3508 18.3254 17.9253 18.3254C18.8133 18.3254 19.5305 18.6328 20.0769 19.2475C20.6274 19.8623 20.9026 20.6799 20.9026 21.7004V21.7788C20.9026 22.4136 20.78 22.9842 20.5349 23.4904C20.2939 23.9926 19.9463 24.3844 19.4923 24.6656C19.0423 24.9469 18.524 25.0875 17.9374 25.0875C17.0535 25.0875 16.3363 24.7801 15.7858 24.1654C15.2394 23.5507 14.9662 22.7371 14.9662 21.7246V21.6462ZM16.0872 21.7788C16.0872 22.502 16.2539 23.0826 16.5874 23.5205C16.9249 23.9585 17.3749 24.1775 17.9374 24.1775C18.5039 24.1775 18.9539 23.9565 19.2874 23.5145C19.6209 23.0685 19.7876 22.4458 19.7876 21.6462C19.7876 20.931 19.6169 20.3525 19.2753 19.9105C18.9378 19.4645 18.4878 19.2415 17.9253 19.2415C17.3749 19.2415 16.9309 19.4605 16.5934 19.8984C16.2559 20.3364 16.0872 20.9632 16.0872 21.7788Z" transform="translate(41.6898 4.34735)" fill="white"/>
<path d="M21.6653 21.6522C21.6653 20.6357 21.9004 19.8281 22.3705 19.2295C22.8406 18.6268 23.4633 18.3254 24.2388 18.3254C25.0343 18.3254 25.6551 18.6067 26.101 19.1692L26.1553 18.446H27.1738V24.8103C27.1738 25.654 26.9227 26.319 26.4205 26.8051C25.9222 27.2913 25.2513 27.5344 24.4075 27.5344C23.9374 27.5344 23.4774 27.4339 23.0274 27.233C22.5774 27.0321 22.2339 26.7569 21.9968 26.4074L22.5754 25.7384C23.0535 26.329 23.6381 26.6243 24.3292 26.6243C24.8716 26.6243 25.2935 26.4717 25.5948 26.1663C25.9002 25.8609 26.0528 25.431 26.0528 24.8766V24.3161C25.6068 24.8304 24.9981 25.0875 24.2267 25.0875C23.4633 25.0875 22.8446 24.7801 22.3705 24.1654C21.9004 23.5507 21.6653 22.7129 21.6653 21.6522ZM22.7863 21.7788C22.7863 22.5141 22.937 23.0926 23.2383 23.5145C23.5397 23.9324 23.9615 24.1413 24.5039 24.1413C25.2071 24.1413 25.7234 23.8219 26.0528 23.183V20.2058C25.7113 19.583 25.199 19.2717 24.516 19.2717C23.9736 19.2717 23.5497 19.4826 23.2443 19.9045C22.939 20.3263 22.7863 20.9511 22.7863 21.7788Z" transform="translate(41.6898 4.34735)" fill="white"/>
<path d="M29.7024 24.967H28.5875V15.7098H29.7024V24.967Z" transform="translate(41.6898 4.34735)" fill="white"/>
<path d="M33.8281 25.0875C32.9442 25.0875 32.225 24.7982 31.6705 24.2196C31.1161 23.6371 30.8388 22.8596 30.8388 21.8873V21.6824C30.8388 21.0355 30.9614 20.4589 31.2065 19.9527C31.4556 19.4424 31.8011 19.0446 32.2431 18.7594C32.689 18.4701 33.1712 18.3254 33.6895 18.3254C34.5373 18.3254 35.1962 18.6047 35.6663 19.1632C36.1364 19.7217 36.3714 20.5212 36.3714 21.5618V22.0259H31.9538C31.9698 22.6688 32.1567 23.1891 32.5143 23.5868C32.8759 23.9806 33.3339 24.1775 33.8884 24.1775C34.2821 24.1775 34.6156 24.0971 34.8888 23.9364C35.162 23.7757 35.4011 23.5627 35.606 23.2975L36.287 23.8279C35.7406 24.6676 34.921 25.0875 33.8281 25.0875ZM33.6895 19.2415C33.2395 19.2415 32.8618 19.4063 32.5565 19.7357C32.2511 20.0612 32.0623 20.5192 31.9899 21.1098H35.2565V21.0254C35.2243 20.4589 35.0716 20.021 34.7984 19.7116C34.5252 19.3982 34.1556 19.2415 33.6895 19.2415Z" transform="translate(41.6898 4.34735)" fill="white"/>
<path d="M41.3201 21.5317V24.967H40.163V16.192H43.3994C44.3596 16.192 45.111 16.4371 45.6534 16.9272C46.1998 17.4174 46.473 18.0663 46.473 18.8739C46.473 19.7257 46.2058 20.3826 45.6715 20.8446C45.1411 21.3027 44.3797 21.5317 43.3873 21.5317H41.3201ZM41.3201 20.5855H43.3994C44.0181 20.5855 44.4922 20.4408 44.8217 20.1516C45.1511 19.8583 45.3159 19.4364 45.3159 18.8859C45.3159 18.3636 45.1511 17.9458 44.8217 17.6324C44.4922 17.319 44.0402 17.1563 43.4657 17.1442H41.3201V20.5855Z" transform="translate(41.6898 4.34735)" fill="white"/>
<path d="M48.6159 24.967H47.5009V15.7098H48.6159V24.967Z" transform="translate(41.6898 4.34735)" fill="white"/>
<path d="M54.0615 24.967C53.9972 24.8384 53.9449 24.6094 53.9048 24.2799C53.3865 24.8183 52.7677 25.0875 52.0485 25.0875C51.4057 25.0875 50.8773 24.9067 50.4635 24.5451C50.0537 24.1795 49.8487 23.7174 49.8487 23.1589C49.8487 22.4799 50.1059 21.9536 50.6202 21.5799C51.1385 21.2022 51.8657 21.0134 52.8019 21.0134H53.8867V20.5011C53.8867 20.1114 53.7702 19.802 53.5371 19.573C53.3041 19.34 52.9606 19.2234 52.5066 19.2234C52.1088 19.2234 51.7753 19.3239 51.5061 19.5248C51.2369 19.7257 51.1023 19.9688 51.1023 20.254H49.9813C49.9813 19.9286 50.0958 19.6152 50.3249 19.3138C50.5579 19.0085 50.8713 18.7674 51.265 18.5906C51.6628 18.4138 52.0987 18.3254 52.5728 18.3254C53.3242 18.3254 53.9128 18.5143 54.3387 18.892C54.7646 19.2656 54.9856 19.7819 55.0016 20.4408V23.4422C55.0016 24.0408 55.078 24.517 55.2307 24.8705V24.967H54.0615ZM52.2112 24.1172C52.5608 24.1172 52.8923 24.0268 53.2057 23.846C53.5191 23.6652 53.7461 23.4301 53.8867 23.1409V21.8029H53.0128C51.6467 21.8029 50.9637 22.2027 50.9637 23.0022C50.9637 23.3518 51.0802 23.625 51.3133 23.8219C51.5463 24.0188 51.8456 24.1172 52.2112 24.1172Z" transform="translate(41.6898 4.34735)" fill="white"/>
<path d="M58.4162 23.3337L59.9349 18.446H61.1282L58.5066 25.9734C58.1008 27.0583 57.4559 27.6007 56.572 27.6007L56.361 27.5826L55.9452 27.5042V26.6002L56.2465 26.6243C56.6242 26.6243 56.9175 26.548 57.1264 26.3953C57.3394 26.2426 57.5142 25.9634 57.6508 25.5576L57.8979 24.8946L55.5715 18.446H56.7889L58.4162 23.3337Z" transform="translate(41.6898 4.34735)" fill="white"/>
<path d="M6.78616 2.22991H3.96562V10.0527H2.81451V2.22991H0V1.27768H6.78616V2.22991Z" transform="translate(41.6898 4.34735)" fill="white"/>
<path d="M10.8817 10.0527C10.8174 9.92411 10.7652 9.69509 10.725 9.36563C10.2067 9.90402 9.58797 10.1732 8.86878 10.1732C8.22592 10.1732 7.69757 9.99241 7.28373 9.6308C6.87391 9.26518 6.669 8.80313 6.669 8.24464C6.669 7.56563 6.92614 7.03929 7.44043 6.66563C7.95873 6.28795 8.68596 6.09911 9.62212 6.09911H10.7069V5.58683C10.7069 5.1971 10.5904 4.88772 10.3574 4.65871C10.1244 4.42567 9.78083 4.30915 9.32681 4.30915C8.92904 4.30915 8.59556 4.4096 8.32636 4.61049C8.05717 4.81138 7.92257 5.05446 7.92257 5.33973H6.80159C6.80159 5.01429 6.9161 4.70089 7.14512 4.39955C7.37815 4.0942 7.69154 3.85313 8.08529 3.67634C8.48306 3.49955 8.919 3.41116 9.39311 3.41116C10.1444 3.41116 10.7331 3.6 11.159 3.97768C11.5848 4.35134 11.8058 4.86763 11.8219 5.52656V8.5279C11.8219 9.12656 11.8982 9.60268 12.0509 9.95625V10.0527H10.8817ZM9.0315 9.2029C9.38105 9.2029 9.71253 9.1125 10.0259 8.9317C10.3393 8.75089 10.5663 8.51585 10.7069 8.22656V6.88862H9.83306C8.46699 6.88862 7.78395 7.28839 7.78395 8.08795C7.78395 8.4375 7.90047 8.71071 8.13351 8.90759C8.36654 9.10446 8.66587 9.2029 9.0315 9.2029ZM9.13998 2.47701L9.13395 1.55491C9.43529 1.53482 9.65628 1.49464 9.7969 1.43438C9.93753 1.37411 10.0078 1.26563 10.0078 1.10893C10.0078 0.952232 9.91543 0.835714 9.73061 0.759375C9.5498 0.679018 9.30873 0.638839 9.00739 0.638839L9.04958 0C9.64824 0 10.1023 0.104464 10.4116 0.313393C10.721 0.518304 10.8757 0.791518 10.8757 1.13304C10.8757 1.37813 10.7973 1.58103 10.6407 1.74174C10.484 1.90246 10.2509 2.00491 9.94154 2.04911L9.93552 2.47701H9.13998Z" transform="translate(41.6898 4.34735)" fill="white"/>
<path d="M14.4108 10.0527H13.2958V3.5317H14.4108V10.0527ZM13.2054 1.80201C13.2054 1.62121 13.2597 1.46853 13.3681 1.34397C13.4806 1.21942 13.6454 1.15714 13.8623 1.15714C14.0793 1.15714 14.244 1.21942 14.3565 1.34397C14.469 1.46853 14.5253 1.62121 14.5253 1.80201C14.5253 1.98281 14.469 2.13348 14.3565 2.25402C14.244 2.37455 14.0793 2.43482 13.8623 2.43482C13.6454 2.43482 13.4806 2.37455 13.3681 2.25402C13.2597 2.13348 13.2054 1.98281 13.2054 1.80201Z" transform="translate(41.6898 4.34735)" fill="white"/>
<path d="M19.5764 3.5317L19.6126 4.35134C20.1108 3.72455 20.7617 3.41116 21.5653 3.41116C22.9434 3.41116 23.6385 4.18862 23.6506 5.74353V10.0527H22.5356V5.7375C22.5316 5.26741 22.4231 4.91987 22.2101 4.69487C22.0012 4.46987 21.6738 4.35737 21.2278 4.35737C20.8662 4.35737 20.5488 4.45379 20.2756 4.64665C20.0023 4.83951 19.7894 5.09263 19.6367 5.40603V10.0527H18.5218V3.5317H19.5764Z" transform="translate(41.6898 4.34735)" fill="white"/>
<path d="M24.6966 6.73795C24.6966 5.72143 24.9316 4.91384 25.4017 4.31518C25.8718 3.7125 26.4946 3.41116 27.27 3.41116C28.0655 3.41116 28.6863 3.69241 29.1323 4.25491L29.1865 3.5317H30.205V9.89598C30.205 10.7397 29.9539 11.4047 29.4517 11.8908C28.9535 12.377 28.2825 12.6201 27.4387 12.6201C26.9687 12.6201 26.5086 12.5196 26.0586 12.3188C25.6086 12.1179 25.2651 11.8426 25.028 11.4931L25.6066 10.8241C26.0847 11.4147 26.6693 11.71 27.3604 11.71C27.9028 11.71 28.3247 11.5574 28.626 11.252C28.9314 10.9467 29.0841 10.5167 29.0841 9.96228V9.40179C28.6381 9.91607 28.0294 10.1732 27.2579 10.1732C26.4946 10.1732 25.8758 9.86585 25.4017 9.25112C24.9316 8.63638 24.6966 7.79866 24.6966 6.73795ZM25.8175 6.86451C25.8175 7.59978 25.9682 8.17835 26.2696 8.60022C26.5709 9.01808 26.9928 9.22701 27.5352 9.22701C28.2383 9.22701 28.7546 8.90759 29.0841 8.26875V5.29152C28.7425 4.66875 28.2303 4.35737 27.5472 4.35737C27.0048 4.35737 26.5809 4.5683 26.2756 4.99018C25.9702 5.41205 25.8175 6.03683 25.8175 6.86451Z" transform="translate(41.6898 4.34735)" fill="white"/>
<path d="M35.5481 10.0527C35.4839 9.92411 35.4316 9.69509 35.3915 9.36563C34.8731 9.90402 34.2544 10.1732 33.5352 10.1732C32.8923 10.1732 32.364 9.99241 31.9502 9.6308C31.5403 9.26518 31.3354 8.80313 31.3354 8.24464C31.3354 7.56563 31.5926 7.03929 32.1069 6.66563C32.6252 6.28795 33.3524 6.09911 34.2886 6.09911H35.3734V5.58683C35.3734 5.1971 35.2569 4.88772 35.0238 4.65871C34.7908 4.42567 34.4473 4.30915 33.9932 4.30915C33.5955 4.30915 33.262 4.4096 32.9928 4.61049C32.7236 4.81138 32.589 5.05446 32.589 5.33973H31.468C31.468 5.01429 31.5825 4.70089 31.8115 4.39955C32.0446 4.0942 32.358 3.85313 32.7517 3.67634C33.1495 3.49955 33.5854 3.41116 34.0595 3.41116C34.8109 3.41116 35.3995 3.6 35.8254 3.97768C36.2513 4.35134 36.4723 4.86763 36.4883 5.52656V8.5279C36.4883 9.12656 36.5647 9.60268 36.7173 9.95625V10.0527H35.5481ZM33.6979 9.2029C34.0475 9.2029 34.379 9.1125 34.6923 8.9317C35.0057 8.75089 35.2327 8.51585 35.3734 8.22656V6.88862H34.4995C33.1334 6.88862 32.4504 7.28839 32.4504 8.08795C32.4504 8.4375 32.5669 8.71071 32.7999 8.90759C33.033 9.10446 33.3323 9.2029 33.6979 9.2029Z" transform="translate(41.6898 4.34735)" fill="white"/>
<path d="M39.9029 8.41942L41.4216 3.5317H42.6149L39.9933 11.0592C39.5875 12.144 38.9426 12.6864 38.0587 12.6864L37.8477 12.6683L37.4319 12.59V11.6859L37.7332 11.71C38.1109 11.71 38.4042 11.6337 38.6131 11.481C38.8261 11.3283 39.0009 11.0491 39.1375 10.6433L39.3846 9.98036L37.0582 3.5317H38.2756L39.9029 8.41942Z" transform="translate(41.6898 4.34735)" fill="white"/>
<path d="M8.5366 2.70293L3.85247 -3.229e-07L3.47738e-07 3.72397L3.52091 7.12748L8.53655 4.23251C8.81287 4.07314 8.97799 3.7871 8.97799 3.46795C8.97804 3.14875 8.81292 2.86271 8.5366 2.70293Z" transform="translate(24.4455 14.367)" fill="white"/>
<path d="M16.4516 8.7648L11.2969 5.78906L0 0L12.7594 12.3343L16.4516 8.7648Z" transform="translate(11.0513 5.14288)" fill="white"/>
<path d="M-1.39716e-08 12.1524L11.1287 6.02209L15.9325 3.24896L12.5718 1.98707e-07L-1.39716e-08 12.1524Z" transform="translate(11.2389 18.7048)" fill="white"/>
<path d="M0.0119542 -2.13455e-08L-3.02718e-08 24.9091L12.8901 12.4486L0.0119542 -2.13455e-08Z" transform="translate(10.2857 5.64215)" fill="white"/>
</svg>
